HIERARCHY
ROOT Hips
{
  OFFSET -31.5692 30.0904 122.763
  CHANNELS 6 Xposition Yposition Zposition Zrotation Xrotation Yrotation
  JOINT LeftUpLeg
  {
    OFFSET 8.64259 1.95398 -2.38835
    CHANNELS 3 Zrotation Xrotation Yrotation
    JOINT LeftLeg
    {
      OFFSET 43.7702 0 0
      CHANNELS 3 Zrotation Xrotation Yrotation
      JOINT LeftFoot
      {
        OFFSET 40.6238 0 0
        CHANNELS 3 Zrotation Xrotation Yrotation
        JOINT LeftToeBase
        {
          OFFSET 12.7242 0 0
          CHANNELS 3 Zrotation Xrotation Yrotation
          End Site
          {
            OFFSET 0 0 0
          }
        }
      }
    }
  }
  JOINT RightUpLeg
  {
    OFFSET -8.2249 1.95398 -2.59336
    CHANNELS 3 Zrotation Xrotation Yrotation
    JOINT RightLeg
    {
      OFFSET 43.5653 0 0
      CHANNELS 3 Zrotation Xrotation Yrotation
      JOINT RightFoot
      {
        OFFSET 40.6238 0 0
        CHANNELS 3 Zrotation Xrotation Yrotation
        JOINT RightToeBase
        {
          OFFSET 12.7242 0 0
          CHANNELS 3 Zrotation Xrotation Yrotation
          End Site
          {
            OFFSET 0 0 0
          }
        }
      }
    }
  }
  JOINT Spine
  {
    OFFSET 0.165834 0.87714 6.61349
    CHANNELS 3 Zrotation Xrotation Yrotation
    JOINT Spine1
    {
      OFFSET 7.38963 1.71661e-005 0
      CHANNELS 3 Zrotation Xrotation Yrotation
      JOINT Spine2
      {
        OFFSET 11.9445 1.14441e-005 0
        CHANNELS 3 Zrotation Xrotation Yrotation
        JOINT Spine3
        {
          OFFSET 14.7254 4.19617e-005 0
          CHANNELS 3 Zrotation Xrotation Yrotation
          JOINT Spine4
          {
            OFFSET 10.9679 0 0
            CHANNELS 3 Zrotation Xrotation Yrotation
            JOINT RightShoulder
            {
              OFFSET 2.46616 -1.6653 3.69651
              CHANNELS 3 Zrotation Xrotation Yrotation
              JOINT RightArm
              {
                OFFSET 13.0012 0 0
                CHANNELS 3 Zrotation Xrotation Yrotation
                JOINT RightForeArm
                {
                  OFFSET 28.7848 1.62311e-005 0
                  CHANNELS 3 Zrotation Xrotation Yrotation
                  JOINT RightHand
                  {
                    OFFSET 26.5688 1.62095e-005 0
                    CHANNELS 3 Zrotation Xrotation Yrotation
                    End Site
                    {
                      OFFSET 0 0 0
                    }
                  }
                }
              }
            }
            JOINT LeftShoulder
            {
              OFFSET 2.38034 -1.29275 -3.7523
              CHANNELS 3 Zrotation Xrotation Yrotation
              JOINT LeftArm
              {
                OFFSET 16.3182 6.07031e-005 0
                CHANNELS 3 Zrotation Xrotation Yrotation
                JOINT LeftForeArm
                {
                  OFFSET 27.0901 0 0
                  CHANNELS 3 Zrotation Xrotation Yrotation
                  JOINT LeftHand
                  {
                    OFFSET 24.5451 1.51738e-005 0
                    CHANNELS 3 Zrotation Xrotation Yrotation
                    End Site
                    {
                      OFFSET 0 0 0
                    }
                  }
                }
              }
            }
            JOINT Neck
            {
              OFFSET 5.0226 -0.0266342 0
              CHANNELS 3 Zrotation Xrotation Yrotation
              JOINT Head
              {
                OFFSET 6.69364 2.86102e-005 0
                CHANNELS 3 Zrotation Xrotation Yrotation
                End Site
                {
                  OFFSET 0 0 0
                }
              }
            }
          }
        }
      }
    }
  }
}
MOTION
Frames:	13
Frame Time:	0.0416667
-245.972 98.4061 216.143 91.5414 15.5682 88.4369 -174.517 -2.1587 88.8034 -5.34249 -2.6306 0.869772 67.3718 4.89095 -1.73083 20.3465 -7.81972 8.38038 174.427 3.94013 89.8148 -14.4483 -25.3274 -2.54746 66.075 -3.50094 0.591331 24.0623 2.35463 -0.524941 -0.190649 7.14099 -90.1301 12.5915 -0.440703 -0.208559 0.920631 -0.449433 -0.188971 -21.6148 -0.357661 -0.331368 -1.60217 -0.357647 -0.331371 92.8938 -27.7506 -101.674 43.4701 -5.5008 -3.87915 5.01252 -25.3037 -13.1388 -24.6194 -0.0133538 -9.52656 -84.7656 -45.1219 85.9459 -34.3817 9.58553 -0.821378 -2.70256 -3.89295 -4.16198 4.3416 -1.12458 -21.1723 -7.32735 -32.7797 -20.478 -4.26855 -31.1419 -11.4882 
-245.771 98.3492 216.224 91.8579 15.9515 88.5078 -174.288 -2.47135 89.2707 -5.35979 -2.74928 0.888567 67.4698 4.71756 -3.12294 19.664 -7.26647 6.31435 174.441 2.98074 89.9705 -13.0107 -20.9516 -2.20876 67.2612 -3.93274 2.87266 22.3846 2.36483 2.40673 -0.196936 7.19472 -90.1391 12.484 -0.457047 -0.225196 0.813146 -0.466535 -0.204865 -21.7223 -0.368245 -0.352152 -1.70966 -0.368275 -0.352157 92.8812 -28.0567 -101.603 43.2417 -5.64322 -4.12058 4.98369 -25.6374 -13.3086 -24.3866 -0.0713674 -9.3501 -84.7422 -44.9998 85.9662 -34.2351 7.73875 -0.685598 -2.69101 2.16872 -3.89388 2.69728 -0.703145 -20.2675 -7.35083 -32.7685 -20.9117 -4.27093 -31.104 -11.3001 
-245.527 98.377 216.303 91.5531 16.6624 88.5138 -174.132 -2.21999 89.4027 -5.38649 -1.79698 0.700944 67.5592 4.85336 -2.74841 19.1061 -7.47912 6.07878 174.446 3.2037 89.9983 -13.7329 -23.9566 -2.38334 66.5267 -3.77152 0.853743 23.9857 2.30612 -0.178741 -0.20547 7.15995 -90.153 12.5534 -0.481073 -0.249762 0.882579 -0.491607 -0.228353 -21.6529 -0.38377 -0.382798 -1.64024 -0.383784 -0.382805 92.9118 -27.8774 -101.596 43.4196 -5.44644 -4.01498 5.00138 -23.5484 -13.1201 -25.5937 -0.126249 -8.80294 -85.0207 -45.3891 85.5767 -34.1181 8.30787 -0.703324 -2.68835 -0.0160488 -3.9178 2.69029 -0.784989 -20.942 -7.18804 -32.7763 -20.6373 -4.16014 -31.1079 -11.3756 
-245.145 98.3086 216.403 91.4158 17.1546 88.4632 -173.922 -2.24225 89.6049 -5.40326 -0.834944 0.506492 67.5743 4.94759 -2.49088 19.0578 -7.4409 5.93825 174.423 3.22109 90.0359 -13.623 -23.0764 -2.30995 67.1612 -4.30432 0.19396 22.9758 2.23306 1.89892 -0.211658 7.1501 -90.1723 12.573 -0.502528 -0.285646 0.90217 -0.514635 -0.263254 -21.6333 -0.393466 -0.423478 -1.62061 -0.393455 -0.423478 93.0616 -27.3176 -101.461 43.7988 -5.55667 -3.95444 5.08674 -22.7956 -13.1108 -29.3982 -0.583978 -5.8994 -84.8369 -46.1239 85.9723 -33.5438 8.78895 -0.351828 -2.83165 -1.16371 -4.96486 2.38762 -0.724845 -19.8333 -5.91904 -32.7599 -19.8672 -5.20989 -30.843 -10.9913 
-244.659 98.3435 216.769 91.0308 18.0505 88.8768 -173.286 -1.79254 90.5676 -5.67559 0.192477 0.172289 67.8884 5.06199 -3.39897 19.0468 -7.59251 6.24716 174.884 3.33186 90.7875 -14.1235 -21.6903 -2.3014 67.1131 -3.92308 1.6338 23.9221 2.58011 -1.13658 -0.202192 7.13709 -90.1769 12.599 -0.485889 -0.296772 0.928156 -0.498515 -0.275104 -21.6072 -0.374259 -0.429082 -1.59455 -0.37427 -0.429096 93.0091 -27.7878 -101.423 43.5513 -5.5658 -3.98592 5.06148 -24.7949 -13.0911 -25.9944 0.160638 -10.0921 -85.1169 -45.3577 85.4189 -34.1435 8.64954 -0.642912 -3.01697 -2.1543 -4.58124 2.50461 -0.750351 -19.4471 -6.25652 -32.9741 -21.0231 -4.40286 -31.0839 -10.605 
-243.903 98.3366 217.061 91.5436 18.7949 88.698 -172.718 -2.50087 91.165 -5.82084 1.44841 -0.0518312 68.2244 5.38182 -3.14412 20.1461 -7.17882 6.73379 174.68 2.36062 90.9584 -14.0962 -21.296 -2.04751 67.7197 -4.49652 0.501713 23.2149 2.58229 0.158607 -0.161658 7.19828 -90.1661 12.4768 -0.400138 -0.285595 0.805883 -0.412294 -0.267707 -21.7293 -0.295801 -0.392649 -1.71668 -0.295802 -0.39264 93.2965 -27.632 -100.871 44.0927 -5.72718 -3.94621 5.26905 -23.935 -12.8565 -23.7274 -0.0790375 -8.99897 -85.2354 -45.9673 85.32 -33.2922 8.75716 -0.776248 -3.13249 -2.5092 -4.47655 3.3346 -0.829583 -18.6754 -6.21019 -33.1679 -20.8649 -4.49829 -31.2751 -10.6674 
-242.885 98.2654 217.361 92.7678 20.1421 87.8345 -172.133 -3.69401 91.6801 -6.54074 3.26379 -0.275147 68.5386 5.70164 -3.89864 21.1423 -7.17275 8.00869 174.137 0.693189 90.9069 -14.6147 -20.4491 -1.79639 68.7303 -5.09495 0.494531 23.0108 2.77065 -0.185881 -0.167909 7.35112 -90.047 12.1719 -0.355952 -0.0535269 0.500959 -0.357963 -0.0378125 -22.0345 -0.323403 -0.158034 -2.02188 -0.323406 -0.158027 92.904 -28.1262 -101.534 44.0081 -5.88985 -3.75924 5.47933 -22.9277 -12.9318 -24.074 0.146631 -9.95529 -84.9818 -45.5955 85.6679 -32.8391 8.94383 -0.9487 -3.41452 -3.54338 -4.65725 3.30333 -0.888634 -19.4448 -6.7977 -32.8446 -21.0937 -4.2445 -31.0639 -10.9589 
-241.668 98.1252 217.937 93.9318 21.916 87.0726 -171.59 -4.58176 92.373 -7.3742 5.51789 -0.227523 69.0857 6.68882 -3.16606 21.0614 -6.7141 6.87857 173.904 -0.394195 90.9919 -15.684 -18.6236 -1.55522 69.854 -5.58967 0.42539 22.9914 2.7758 -0.16179 -0.150566 7.47098 -89.9556 11.932 -0.278532 0.11847 0.26108 -0.273028 0.130606 -22.2743 -0.301255 0.0292828 -2.26167 -0.301227 0.0292872 92.5195 -28.4453 -102.224 44.0548 -6.08551 -3.35075 5.40268 -24.7664 -13.3672 -26.6963 -0.337013 -7.55124 -85.2477 -45.8747 85.2873 -31.7591 8.83062 -0.962536 -3.54588 -5.29886 -4.32186 4.18517 -1.12838 -21.026 -7.48208 -32.1034 -19.753 -4.36247 -30.5388 -12.1113 
-240.679 97.5678 218.454 94.4533 24.1151 86.2543 -171.832 -3.57165 92.4172 -10.5771 6.50093 0.234421 70.4494 8.56039 -3.30238 24.0532 -5.78272 8.79305 173.128 -0.103006 90.6323 -17.9871 -17.144 -0.852065 72.0023 -6.91825 -1.65593 22.3176 1.9694 4.00603 -0.082057 7.51522 -89.8832 11.8435 -0.108214 0.244425 0.172537 -0.0973701 0.248949 -22.3625 -0.17667 0.200603 -2.34987 -0.17668 0.200602 92.1054 -28.6188 -103.016 43.6861 -6.1111 -3.35902 5.57784 -21.1044 -13.497 -26.9396 -0.043422 -8.22743 -85.4193 -46.1091 85.0504 -30.8952 8.31098 -0.592571 -3.72255 -5.2865 -3.89488 5.81589 -1.25319 -19.5194 -6.79816 -29.0602 -15.3605 -4.47196 -27.7041 -12.1524 
-239.825 97.1305 218.725 95.5823 27.7823 85.2174 -173.129 3.2828 93.6266 -25.6462 8.81329 1.10789 71.0403 8.0288 -3.3166 24.7012 -5.15893 8.18493 171.516 -0.801614 90.0059 -19.6878 -14.5524 0.620759 74.2113 -7.36549 0.413457 22.5466 2.64306 1.10247 -0.0102322 7.65211 -89.9214 11.5696 0.0163947 0.154645 -0.101334 0.0232242 0.153759 -22.6365 -0.0308054 0.152431 -2.62379 -0.0308385 0.152417 91.8157 -28.4406 -103.671 42.8303 -6.32401 -3.51121 5.65171 -18.7533 -14.1428 -26.7757 0.119166 -8.63758 -85.3366 -46.5105 85.2396 -30.6903 8.05566 -0.664623 -3.53163 -6.02297 -3.83487 5.45869 -1.25808 -20.3757 -4.82375 -23.0533 -9.9911 -4.75282 -21.9008 -10.311 
-238.8 97.1203 218.598 96.3151 30.8421 83.8195 -173.596 12.7589 90.6951 -39.7374 11.0195 1.08487 69.2261 5.72812 -2.3364 21.1818 -7.43142 8.64248 170.984 -2.48218 89.281 -18.2422 -11.2667 0.824693 74.4021 -7.55889 -0.62381 22.8582 1.57959 4.60768 0.262838 7.78378 -89.9375 11.3062 0.55223 0.0697854 -0.364669 0.554757 0.0454087 -22.9004 0.505705 0.232531 -2.88777 0.505728 0.232531 91.1608 -28.6706 -104.925 40.9375 -5.99759 -3.51827 4.6719 -20.9015 -15.8081 -23.0253 0.498201 -11.7131 -85.0725 -46.4934 85.6532 -31.0677 7.79253 -0.961387 -3.39528 -6.2837 -2.69067 6.84546 -1.3278 -18.8541 -3.37666 -16.2479 -6.28783 -5.39019 -15.3734 -8.0262 
-237.798 97.2141 217.564 96.1958 32.68 81.3443 -174.112 17.8157 87.2669 -38.68 13.0612 -0.556802 66.8296 4.18602 -1.8621 24.7472 -5.85137 9.96384 169.79 -2.76732 86.8419 -18.8558 -10.352 0.473282 75.105 -7.69868 -0.257366 24.2887 1.21242 3.61306 0.615326 7.85679 -89.7037 11.1587 1.3624 0.456981 -0.511591 1.3812 0.39656 -23.0506 1.16207 0.845351 -3.03793 1.16205 0.845343 90.9557 -28.3145 -105.476 40.7069 -6.21345 -4.95326 4.09497 -20.4143 -16.9369 -22.9019 0.670131 -12.6391 -85.3459 -46.3011 85.1953 -31.1527 7.06303 1.32926 -3.01128 -5.81771 -3.60739 3.89098 -1.05374 -20.1226 -3.27103 -10.6688 -4.11747 -4.52249 -10.0977 -5.51532 
-236.397 97.2114 215.826 95.6519 34.9169 79.5503 -175.822 20.9516 83.5927 -29.1901 12.2002 -1.54682 66.1425 3.81515 -3.1607 23.5706 -6.2868 9.30435 168.706 -3.4146 84.6469 -18.2324 -8.50616 0.202852 75.9505 -8.06406 -0.281247 25.2438 0.699397 4.03849 0.824846 7.90743 -89.5616 11.0538 1.84528 0.694797 -0.615973 1.87408 0.612881 -23.1576 1.55116 1.21734 -3.14494 1.55115 1.21734 91.2648 -27.5189 -105.137 40.3091 -7.40957 -7.75296 3.83713 -19.4934 -18.6485 -24.3737 0.925256 -13.3073 -85.3353 -47.2987 85.3562 -30.4834 6.0094 3.26224 -2.43806 -5.44505 -2.91791 3.03081 -0.905439 -19.6457 -3.0138 -7.46617 -0.537515 -3.87474 -7.34355 -5.17073 
